<svg xmlns="http://www.w3.org/2000/svg" viewBox="0 0 64 64" role="img" aria-label="newspaper favicon">
  <rect width="64" height="64" rx="18" fill="#0f172a" />
  <path
    d="M18 14h28c3.314 0 6 2.686 6 6v24c0 3.314-2.686 6-6 6H22c-3.314 0-6-2.686-6-6V20c0-3.314 2.686-6 6-6Z"
    fill="#fffdfa"
  />
  <path
    d="M19 20.5c0-2.485 2.015-4.5 4.5-4.5H46c2.485 0 4.5 2.015 4.5 4.5V43c0 2.485-2.015 4.5-4.5 4.5H23.5c-2.485 0-4.5-2.015-4.5-4.5Z"
    fill="none"
    stroke="#0f172a"
    stroke-linejoin="round"
    stroke-width="2.8"
  />
  <path d="M24 24h22" fill="none" stroke="#0f172a" stroke-linecap="round" stroke-width="3.4" />
  <path d="M24 30.5h10" fill="none" stroke="#0f172a" stroke-linecap="round" stroke-width="2.8" />
  <path d="M24 36.5h10" fill="none" stroke="#0f172a" stroke-linecap="round" stroke-width="2.8" />
  <path d="M24 42.5h22" fill="none" stroke="#0f172a" stroke-linecap="round" stroke-width="2.8" />
  <rect x="38.5" y="29" width="8.5" height="9.5" rx="2.2" fill="#cbd5e1" />
</svg>
