<svg xmlns="http://www.w3.org/2000/svg" viewBox="0 0 1200 760" role="img" aria-label="Craft wave cover">
  <rect width="1200" height="760" fill="#f4ede2" />
  <rect x="32" y="32" width="1136" height="696" rx="36" fill="#162a40" />
  <path d="M70 486c95-66 187-104 276-112 110-10 184 20 270 58s180 74 286 62c88-10 176-47 266-110v196H70Z" fill="#f39f68" opacity="0.92" />
  <path d="M70 562c126-62 245-76 358-42 94 29 173 80 282 86 118 7 238-37 458-160v250H70Z" fill="#f6ddbb" opacity="0.94" />
  <path d="M70 644c142-55 280-55 411 1 103 43 191 72 307 62 126-12 252-68 380-165v186H70Z" fill="#7aa5be" opacity="0.8" />
  <g fill="#fff8ef" opacity="0.76">
    <circle cx="202" cy="188" r="9" />
    <circle cx="298" cy="242" r="7" />
    <circle cx="376" cy="162" r="6" />
    <circle cx="864" cy="226" r="10" />
    <circle cx="950" cy="170" r="6" />
  </g>
</svg>
