<svg xmlns="http://www.w3.org/2000/svg" viewBox="0 0 1200 760" role="img" aria-label="Paper constellation cover">
  <defs>
    <linearGradient id="bg" x1="120" y1="80" x2="1040" y2="680" gradientUnits="userSpaceOnUse">
      <stop stop-color="#18324f" />
      <stop offset="1" stop-color="#274f76" />
    </linearGradient>
  </defs>
  <rect width="1200" height="760" fill="#f5efe4" />
  <rect x="32" y="32" width="1136" height="696" rx="36" fill="url(#bg)" />
  <circle cx="245" cy="180" r="112" fill="#f3a269" opacity="0.72" />
  <circle cx="906" cy="522" r="148" fill="#8ec0d7" opacity="0.26" />
  <g stroke="#f4efe4" stroke-opacity="0.65" stroke-width="2">
    <path d="M186 214 358 154 547 276 726 186 978 304" />
    <path d="M256 414 436 344 612 442 792 390 1018 520" />
  </g>
  <g fill="#fff8ef">
    <circle cx="186" cy="214" r="8" />
    <circle cx="358" cy="154" r="8" />
    <circle cx="547" cy="276" r="8" />
    <circle cx="726" cy="186" r="8" />
    <circle cx="978" cy="304" r="8" />
    <circle cx="256" cy="414" r="8" />
    <circle cx="436" cy="344" r="8" />
    <circle cx="612" cy="442" r="8" />
    <circle cx="792" cy="390" r="8" />
    <circle cx="1018" cy="520" r="8" />
  </g>
</svg>
